<?xml version="1.0" standalone="no"?>
<!DOCTYPE svg PUBLIC "-//W3C//DTD SVG 20010904//EN"
 "http://www.w3.org/TR/2001/REC-SVG-20010904/DTD/svg10.dtd">
<svg version="1.0" xmlns="http://www.w3.org/2000/svg"
 width="300.000000pt" height="300.000000pt" viewBox="0 0 300.000000 300.000000"
 preserveAspectRatio="xMidYMid meet">
<metadata>
Created by potrace 1.10, written by Peter Selinger 2001-2011
</metadata>
<g transform="translate(0.000000,300.000000) scale(0.100000,-0.100000)"
fill="#000000" stroke="none">
<path d="M1000 2774 c-210 -45 -400 -228 -455 -441 -12 -47 -15 -149 -15 -574
0 -496 1 -520 21 -585 63 -208 227 -362 444 -419 42 -11 108 -15 228 -15 157
0 169 -1 162 -18 -4 -9 -15 -54 -25 -100 -24 -116 -68 -199 -138 -264 -83 -76
-207 -133 -307 -140 l-40 -3 0 69 0 70 35 3 c49 5 159 41 197 64 70 43 129
139 139 226 5 37 3 52 -10 62 -14 11 -15 9 -14 -20 2 -54 -33 -146 -71 -191
-54 -63 -161 -106 -273 -110 l-38 -1 0 -105 0 -104 53 6 c182 19 355 121 434
255 58 99 65 144 70 429 l5 262 -161 0 c-180 0 -214 9 -273 73 -55 61 -58 89
-58 559 0 280 4 444 11 473 14 55 70 122 123 146 38 17 76 19 506 19 428 0
468 -2 505 -19 43 -19 100 -78 116 -118 5 -13 9 -87 9 -164 l0 -139 201 0 200
0 -6 158 c-4 86 -13 183 -21 216 -38 155 -173 321 -316 390 -130 62 -171 66
-701 65 -364 0 -487 -4 -537 -15z m1150 -53 c122 -45 223 -120 273 -201 11
-19 23 -37 26 -40 14 -12 50 -90 66 -143 13 -43 18 -96 19 -195 l1 -137 -155
0 -155 0 -5 125 c-6 144 -18 177 -85 239 -75 69 -90 71 -585 71 -493 0 -505
-1 -582 -70 -25 -22 -55 -60 -67 -85 -21 -45 -22 -57 -23 -518 -1 -534 -2
-522 80 -601 64 -63 106 -75 259 -75 158 -1 145 15 141 -181 l-3 -135 -150 2
c-177 3 -224 12 -325 60 -94 45 -203 150 -247 238 -67 133 -67 131 -69 665 -2
544 1 574 63 700 48 98 151 201 246 248 126 61 130 61 697 59 l515 -2 65 -24z"/>
<path d="M1231 2198 c-19 -14 -21 -27 -21 -111 0 -127 6 -133 145 -131 124 2
135 11 135 115 l0 69 -39 0 c-41 0 -51 11 -51 54 0 20 -4 21 -74 21 -55 0 -80
-5 -95 -17z m151 -48 c13 -19 34 -37 48 -40 20 -5 26 -13 28 -42 6 -70 -6 -78
-112 -78 -109 0 -106 -2 -106 98 0 90 10 102 82 99 30 -2 41 -9 60 -37z"/>
<path d="M1659 2194 c-16 -17 -19 -35 -19 -111 0 -85 2 -93 25 -111 21 -16 38
-19 122 -17 122 3 133 13 133 116 l0 69 -30 0 c-31 0 -53 26 -48 56 3 14 -10
17 -80 18 -72 1 -86 -2 -103 -20z m149 -23 c9 -11 22 -26 28 -33 6 -7 21 -21
33 -30 24 -20 29 -74 8 -102 -10 -14 -28 -17 -96 -17 -48 0 -89 5 -97 12 -15
12 -20 144 -6 165 17 28 106 31 130 5z"/>
<path d="M2254 1760 l-311 -5 -37 -29 c-57 -43 -76 -93 -76 -203 l0 -93 181 0
182 0 -5 -74 c-6 -90 -36 -149 -100 -192 -42 -29 -45 -29 -201 -32 l-158 -3 4
-262 c3 -267 5 -286 34 -360 53 -134 192 -261 323 -292 8 -2 31 -9 50 -15 19
-6 61 -13 93 -16 l57 -6 0 105 0 104 -72 6 c-191 16 -281 99 -313 290 -8 50
-25 37 -25 -19 0 -57 46 -158 91 -201 49 -46 131 -84 213 -97 l71 -12 0 -70
c0 -77 4 -73 -80 -60 -106 17 -245 91 -305 164 -47 56 -87 148 -104 237 -8 44
-18 88 -21 97 -7 17 4 18 146 18 183 0 249 13 360 71 173 90 290 258 319 456
11 80 14 490 3 495 -5 2 -148 1 -319 -2z m277 -47 c8 -8 10 -76 7 -245 -4
-217 -6 -238 -30 -304 -50 -142 -161 -267 -291 -328 -98 -45 -140 -54 -305
-62 l-143 -7 3 159 3 159 135 5 c92 4 143 10 160 20 107 63 150 133 150 244
-1 110 0 110 -187 116 l-157 5 -7 28 c-11 41 6 131 32 166 40 55 51 56 376 56
170 0 245 -3 254 -12z"/>
<path d="M1470 655 l0 -475 93 0 92 0 -2 472 -2 473 -91 3 -90 3 0 -476z m145
436 c10 -17 8 -862 -3 -873 -5 -5 -31 -8 -58 -6 l-49 3 -2 430 c-2 237 -1 435
1 441 5 14 103 18 111 5z"/>
</g>
</svg>
